# xmcd CD database file generated by Grip 2.96
# 
# Track frame offsets:
#       150
#       17870
#       32262
#       45025
#       60537
#       72970
#       85445
#       98317
#       108620
#       121300
#       134910
#       149320
#       165142
#       176672
#       195357
#       210417
#       227125
#       239280
#       256995
#       269855
#       288610
#       301705
# 
# Disc length: 4160 seconds
# 
# Revision: 0
# Processed by: cddbd v1.4b42PL1 Copyright (c) Steve Scherf et al.
# Submitted via: Grip 2.96
# 
DISCID=2d103e16
DTITLE=Foster and Allen - By Request
DYEAR=1900
DGENRE=
TTITLE0=You Got Gold
TTITLE1=Song Sung Blue
TTITLE2=Wolverton Mountain
TTITLE3=I Don't Know Why I Love You
TTITLE4=Oh Lonesome Me
TTITLE5=Beautiful Dreamer
TTITLE6=Do You Want Your Old Lobby Washed Down
TTITLE7=Shutters and Boards
TTITLE8=One Hundred Children
TTITLE9=Peter's Street, Mason's Apron
TTITLE10=Memories Are Made of This
TTITLE11=Release Me
TTITLE12=Things
TTITLE13=I Love Every Second
TTITLE14=My Uncle Mike
TTITLE15=Why Worry
TTITLE16=Those Laxy Hazy Crazy Days Of Summer
TTITLE17=My Father's House
TTITLE18=Teaching McFaddan To Dance
TTITLE19=Wait Until The Clouds Roll By Jenny
TTITLE20=Sunshine Hornpipe, Golden Eagle
TTITLE21=Sea of Heartbreak
EXTD=
EXTT0=
EXTT1=
EXTT2=
EXTT3=
EXTT4=
EXTT5=
EXTT6=
EXTT7=
EXTT8=
EXTT9=
EXTT10=
EXTT11=
EXTT12=
EXTT13=
EXTT14=
EXTT15=
EXTT16=
EXTT17=
EXTT18=
EXTT19=
EXTT20=
EXTT21=
PLAYORDER=
